<?xml version="1.0" encoding="UTF-8"?>
<!DOCTYPE svg PUBLIC "-//W3C//DTD SVG 1.1//EN" "http://www.w3.org/Graphics/SVG/1.1/DTD/svg11.dtd">
<!-- Creator: CorelDRAW 2018 -->
<svg xmlns="http://www.w3.org/2000/svg" xml:space="preserve" width="8.4667mm" height="1.2653mm" version="1.1" style="shape-rendering:geometricPrecision; text-rendering:geometricPrecision; image-rendering:optimizeQuality; fill-rule:evenodd; clip-rule:evenodd"
viewBox="0 0 19.41 2.9"
 xmlns:xlink="http://www.w3.org/1999/xlink">
 <defs>
  <style type="text/css">
   <![CDATA[
    .fil0 {fill:white}
   ]]>
  </style>
 </defs>
 <g id="Camada_x0020_1">
  <metadata id="CorelCorpID_0Corel-Layer"/>
  <g id="_809360776">
   <path class="fil0" d="M-0 2.9l0.24 -0.01 -0 -0.23 0.24 0 0.01 -0.24 0.25 -0 0 -0.25 0.23 0 -0 -0.22 0.25 -0 0 -0.25 0.25 -0 0 -0.25 0.23 0 -0 -0.23 0.23 0 0 -1.21 -1.92 0 0 2.9zm0.48 -1.21l0.25 0 0 -0.25 0.23 0 0 -0.22 0.25 -0.01 0 -0.25 0.25 -0 -0 -0.47 -0.97 0 -0.01 1.2z"/>
   <polygon class="fil0" points="17.48,1.22 18.91,1.22 18.91,1.46 17.48,1.46 17.48,1.94 19.41,1.94 19.4,0.73 17.96,0.73 17.96,0.49 19.4,0.49 19.4,0 17.48,0 "/>
   <polygon class="fil0" points="4.36,0.49 5.83,0.49 5.82,0.73 4.36,0.73 4.36,1.94 4.85,1.94 4.85,1.21 5.09,1.21 5.09,1.44 5.32,1.44 5.32,1.69 5.57,1.69 5.57,1.94 5.83,1.94 5.83,2.17 6.05,2.17 6.05,2.42 6.28,2.42 6.28,1.69 6.05,1.69 6.05,1.44 5.83,1.44 5.83,1.21 6.28,1.21 6.28,0 4.36,0 "/>
   <polygon class="fil0" points="6.53,1.94 7.01,1.94 7.01,1.21 7.26,1.21 7.26,1.44 7.49,1.44 7.49,1.69 7.74,1.69 7.74,1.94 8,1.94 8,2.17 8.22,2.17 8.22,2.42 8.47,2.42 8.47,1.69 8.22,1.69 8.22,1.44 8,1.44 8,1.21 7.74,1.21 7.74,0.73 7.99,0.73 8,0.48 8.22,0.48 8.22,0.25 8.47,0.25 8.47,0 7.74,0 7.74,0.23 7.49,0.23 7.49,0.48 7.26,0.48 7.26,0.73 7.02,0.72 7.01,0 6.53,0 "/>
   <polygon class="fil0" points="8.73,1.94 8.97,1.93 8.97,1.69 9.21,1.69 9.21,1.47 9.46,1.46 9.45,1.21 9.94,1.21 9.94,1.46 10.16,1.46 10.16,1.69 10.41,1.7 10.41,1.94 10.65,1.94 10.65,0 10.16,0 10.16,0.73 9.94,0.73 9.94,0.48 9.46,0.48 9.46,0.73 9.21,0.73 9.21,0 8.73,0 "/>
   <polygon class="fil0" points="13.09,1.94 13.33,1.93 13.33,1.69 13.57,1.69 13.57,1.47 13.82,1.46 13.82,1.21 14.05,1.21 14.05,0.99 14.3,0.98 14.3,0.73 14.55,0.73 14.55,0.48 14.78,0.48 14.78,0.25 15.03,0.25 15.03,0 14.3,0 14.3,0.25 14.05,0.26 14.05,0.48 13.82,0.48 13.82,0.73 13.57,0.73 13.57,0 13.09,0 "/>
   <polygon class="fil0" points="2.17,1.94 2.65,1.94 2.65,1.21 2.9,1.21 2.91,1.46 3.13,1.46 3.13,1.68 3.38,1.69 3.38,1.94 4.11,1.94 4.11,1.69 3.86,1.69 3.86,1.46 3.64,1.46 3.63,1.21 3.38,1.21 3.38,0.96 3.13,0.95 3.13,0.73 2.9,0.73 2.9,0.48 2.65,0.48 2.65,0.25 2.41,0.25 2.41,0.01 2.17,0 "/>
   <polygon class="fil0" points="10.9,1.94 11.38,1.94 11.38,1.21 11.63,1.21 11.63,1.46 11.86,1.46 11.86,1.68 12.11,1.69 12.11,1.94 12.84,1.94 12.84,1.69 12.59,1.69 12.59,1.46 12.36,1.46 12.36,1.21 12.11,1.21 12.11,0.96 11.86,0.95 11.86,0.73 11.63,0.73 11.63,0.48 11.38,0.48 11.38,0.25 11.14,0.25 11.14,0.01 10.9,0 "/>
   <polygon class="fil0" points="15.28,1.22 17.23,1.22 17.23,0.73 15.28,0.73 "/>
   <polygon class="fil0" points="15.28,1.94 17.23,1.94 17.23,1.46 15.28,1.46 "/>
   <polygon class="fil0" points="15.28,0.49 17.22,0.49 17.23,0 15.28,0 "/>
  </g>
 </g>
</svg>
